<?xml version="1.0" encoding="UTF-8"?>
<svg version="1.1" viewBox="0 0 3000 3000" xmlns="http://www.w3.org/2000/svg">
 <path d="m0.059425 2968.8c0.032782-17.196 0.40427-30.331 0.82858-29.297 0.42303 1.0312 5.7128 14.742 11.755 30.469s11.179 28.91 11.414 29.297c0.2356 0.3867-5.0809 0.7031-11.814 0.7031h-12.243l0.059425-31.172zm178.77-26.787-178.83-57.818v-147.06c0-117.27 0.23738-146.96 1.1719-146.59 2.4048 0.953 806.16 408.32 806.7 408.86 0.30902 0.309-100.86 0.5302-224.83 0.4917l-225.39-0.07-178.83-57.818zm301.88-289.14-480.7-346.91v-292.7l24.141 23.997c48.5 48.212 841.02 833.92 851.33 844.02l10.632 10.407-62.574-85.312c-34.416-46.922-67.535-92.062-73.598-100.31-10.63-14.464-10.935-15.009-8.5268-15.254 1.3738-0.1398 264.46 11.767 584.63 26.46s582.25 26.601 582.39 26.462-45.822-9.6867-102.13-21.218c-56.312-11.532-103.15-21.236-104.09-21.566-1.3066-0.4586 107.6-90.604 464.49-384.46 256.41-211.12 467.27-384.67 468.58-385.66 1.5738-1.1904 1.2354-0.5543-0.9974 1.875-21.858 23.782-718.98 810.69-718.56 811.11 0.3151 0.3152 51.886 2.9103 114.6 5.7669 62.716 2.8567 112.6 5.475 110.84 5.8186-1.7534 0.3435-284.31 31.783-627.89 69.866l-624.71 69.242 53.053 52.734 53.053 52.734-16.629-0.091-16.629-0.091-480.7-346.91zm923.25 346.53c2.0417-0.8503 1257.1-342.49 1257.3-342.26 0.1331 0.133-171.37 77.322-381.13 171.53l-381.37 171.29-247.89-0.074c-136.34-0.041-247.45-0.2594-246.9-0.486zm824.96-4.4336c4.1204-2.7465 162.74-106.39 352.49-230.31s345.42-225.69 345.94-226.15c1.3643-1.2147 5.2196-2.93-133.05 59.195-70.083 31.489-127.57 57.103-127.76 56.919-0.1838-0.1837 74.664-285.67 166.33-634.41l166.66-634.08 0.236 252.46 0.2362 252.46-32.376 319.8c-17.807 175.89-32.257 320.34-32.111 321 0.1578 0.7139 13.059-7.1553 31.83-19.415 17.36-11.338 31.816-20.615 32.124-20.615s0.4477 11.343 0.3105 25.207l-0.2494 25.207-253.12 228.79-253.12 228.79-135.93 0.066-135.93 0.066 7.4917-4.9936zm525 4.0422c0.9683-1.5666 242.4-300.3 244.32-302.3 1.7341-1.8124 1.7691 1.1674 1.7691 150.7v152.55h-123.34c-83.184 0-123.15-0.3097-122.75-0.9514zm-600.16-251c77.541-120.98 621.2-969.68 624.72-975.23 6.2242-9.8362 13.213-17.458-69.546 75.838l-69.352 78.182-49.931-300.37c-27.462-165.2-64.9-389.81-83.196-499.12l-33.265-198.75 0.5355 93.238 0.5356 93.238-4.0801-3.3117c-2.2441-1.8215-185.91-147.52-408.14-323.77s-404.91-321.28-405.94-322.29c-1.8656-1.8268-1.8608-1.8286 0.9375-0.36656 1.5468 0.80822 185.7 104.99 409.22 231.51s406.52 229.76 406.67 229.41c0.1442-0.35141-6.9333-43.797-15.728-96.546-8.7946-52.749-15.852-96.045-15.684-96.214 0.1685-0.16861 77.455 231.3 171.75 514.38 94.292 283.08 171.76 514.36 172.14 513.95 0.3863-0.4021 28.387-43.956 62.223-96.785 33.836-52.83 61.74-96.274 62.009-96.543 0.2686-0.2687 0.084 0.5573-0.4101 1.8355-1.4863 3.8446-505.56 1151.5-506.91 1154.1l-1.2446 2.4076-124.99 13.795c-68.742 7.5873-125.3 13.781-125.68 13.764-0.3833-0.017 1.1282-2.8785 3.359-6.3589zm-990.7-157.37c-292.31-60.019-531.67-108.94-531.9-108.7s22.564 44.848 50.657 99.148c59.062 114.16 54.765 105.72 52.922 103.88-0.77389-0.7734-166.41-226.19-368.07-500.92l-366.66-499.51v-45.79l44.078-100.53c24.243-55.294 44.388-100.82 44.766-101.18 0.37803-0.353 121.77 233.4 269.75 519.46s269.16 520.02 269.28 519.93c0.11882-0.096-14.929-45.605-33.439-101.13-18.51-55.526-33.584-100.95-33.497-100.95 0.0868 0 213.19 79.716 473.56 177.14 260.37 97.427 473.48 177.06 473.57 176.95 0.092-0.1048-36.314-20.818-80.903-46.03l-81.07-45.84 4.2127-1.5038c8.4856-3.0291 802.9-317.45 802.69-317.69-0.1214-0.139-34.301 7.3618-75.955 16.669-41.654 9.3068-75.86 16.797-76.012 16.644-0.1525-0.1525 71.028-144.34 158.18-320.42 148.84-300.72 172.53-348.74 172.02-348.74-0.1133 0-17.486 24.454-38.607 54.342-21.12 29.888-38.627 54.357-38.905 54.375s-39.928-139.62-88.113-310.32c-48.185-170.69-87.725-310-87.867-309.57-0.142 0.426 2.8939 26.897 6.7464 58.825s6.9163 58.099 6.8084 58.159c-0.1079 0.059-102.92-64.563-228.48-143.61-264.75-166.68-242.6-152.8-241.16-151.07 0.6219 0.74938 17.8 15.882 38.174 33.629 20.374 17.746 36.728 32.363 36.344 32.48-0.3847 0.11766-104.69 18.573-231.79 41.011s-232.36 41.186-233.91 41.662c-1.9111 0.5874 1.2436 0.7427 9.8437 0.4846 6.9609-0.2088 26.296-0.6113 42.968-0.8943 29.318-0.4977 30.27-0.458 29.062 1.2118-3.2507 4.4928-300.29 385.24-301.51 386.47-0.7636 0.7734 0.1154-1.3359 1.9534-4.6875s49.987-90.433 107-193.51c57.01-103.08 103.53-187.55 103.37-187.71-0.159-0.1591-21.141 3.4029-46.626 7.9154l-46.337 8.2044-81.748 223.55c-44.962 122.95-81.641 223.66-81.51 223.79s9.4302-16.422 20.664-36.784 20.524-37.022 20.644-37.022 34.983 85.623 77.473 190.27c42.491 104.65 77.348 189.97 77.461 189.61 0.1128-0.365-3.5118-16.589-8.0544-36.054s-8.0569-35.391-7.8096-35.391c0.3482 0 311.51 150 314.49 151.61 0.3867 0.2082 0.7031 0.2193 0.7031 0.025 0-0.1946-10.953-7.9186-24.34-17.165-13.387-9.246-24.354-17.022-24.372-17.28-0.018-0.2578 65.55-19.648 145.7-43.089 80.154-23.441 145.58-42.774 145.39-42.961-0.1875-0.1875-12.224 1.206-26.747 3.0965-14.523 1.8907-26.533 3.2936-26.689 3.1177-0.1554-0.1759 27.091-44.828 60.548-99.226 67.8-110.24 75.678-123.19 73.268-120.43-0.9203 1.0547-7.5795 8.8135-14.798 17.242-7.2188 8.4282-13.234 14.737-13.367 14.02-0.133-0.7174-9.0972-49.187-19.921-107.71-10.823-58.524-19.868-107.04-20.1-107.81-0.2316-0.7735-0.3214 6.7203-0.1993 16.653 0.122 9.9324-0.083 17.948-0.4559 17.812-0.3727-0.1356-33.257-25.137-73.077-55.559s-74.125-56.567-76.234-58.099c-2.37-1.7228 0.5243 1.8567 7.5805 9.375 9.5681 10.195 11.085 12.2 9.375 12.397-2.4811 0.2857-158.3 13.311-161.22 13.476-4.0657 0.2307 6.5831 1.5595 18.557 2.3155 6.7031 0.4233 11.252 0.9203 10.108 1.1046-1.3127 0.2115-23.366 22.947-59.829 61.68-31.762 33.74-57.947 61.345-58.187 61.345-0.2408 0 8.3217-12.973 19.028-28.828 10.706-15.855 29.697-43.988 42.202-62.518 12.505-18.529 22.55-33.877 22.321-34.105-0.2285-0.2285-6.5778 0.1019-14.11 0.7341-7.5319 0.6324-13.838 1.0031-14.015 0.8239-0.1763-0.1792 36.872-9.3549 82.33-20.39 45.458-11.036 84.285-20.531 86.282-21.1l3.6307-1.0357-12.771-9.7086c-7.0242-5.3397-12.771-9.8639-12.771-10.054s2.6367 1.0964 5.8594 2.8582c35.408 19.358 173.6 93.24 173.88 92.962 0.2019-0.2018-1.1563-8.4765-3.018-18.388-1.8618-9.9117-3.2454-18.161-3.0748-18.332 0.1708-0.1707 17.976 49.552 39.568 110.49 21.592 60.943 39.516 111.31 39.831 111.93 0.4949 0.9714 25.166-37.775 26.855-42.177 0.4199-1.0941-19.067-38.194-61.042-116.22-33.913-63.034-62.037-115.03-62.498-115.55-0.4613-0.5156 1.5464 5.8125 4.4617 14.062 10.124 28.65 10.734 30.608 9.439 30.296-3.8923-0.9375-248.07-88.422-247.41-88.642 0.6114-0.2038 117.16 21.141 225.94 41.381l6.7589 1.2575-1.5007-2.9271c-0.8254-1.6099-5.5974-10.521-10.604-19.802-11.922-22.098-11.836-21.928-10.087-20.156 0.7637 0.7734 39.057 50.871 85.096 111.33 46.039 60.457 83.96 109.92 84.268 109.92 0.3083 0 3.5136-12.312 7.123-27.358 3.6093-15.045 6.6806-26.541 6.8249-25.545 0.1443 0.9957-5.6564 73.156-12.891 160.36-7.2341 87.2-13.153 159.68-13.153 161.06 0 2.369 1.4843 1.5109 25.32-14.638 29.588-20.047 30.495-20.629 26.999-17.356-87.894 82.289-273.57 256.91-273.37 257.09 0.151 0.14 16.601 2.4996 36.556 5.2436 19.955 2.7439 36.086 5.1841 35.848 5.4226-0.4805 0.4803-388.17 7.4823-418.21 7.5529l-18.893 0.045-22.567-37.5c-12.412-20.625-22.223-37.5-21.802-37.5s91.606 12.656 202.63 28.124c111.03 15.468 201.98 28.007 202.13 27.863 0.1435-0.1434-14.166-4.6293-31.798-9.9685s-33.249-10.179-34.703-10.754c-2.5562-1.0114 2.1849-4.3238 141.56-98.902 79.314-53.821 144.83-98.437 145.59-99.146 0.7583-0.7097-11.207 4.6419-26.589 11.892-15.382 7.2504-28.146 13.004-28.364 12.786-0.2178-0.2178 15.446-65.483 34.809-145.03 19.363-79.551 35.073-144.77 34.91-144.93-0.1621-0.1621-27.673 64.975-61.136 144.75-33.463 79.774-62.614 149.16-64.782 154.18-2.1672 5.0274-3.7701 9.1406-3.5621 9.1406 0.2081 0 12.658-3.6081 27.666-8.018s27.407-7.8904 27.552-7.7344c0.1453 0.156-66.158 31.486-147.34 69.622l-147.6 69.338 4.9667 2.4804c2.7317 1.3643 16.669 8.1001 30.973 14.968 14.303 6.8684 25.888 12.606 25.744 12.75-0.2519 0.2518-348.94-105.63-359.91-109.28l-5.3468-1.7836 1.7336 4.3768c0.9535 2.4073 7.4733 18.474 14.488 35.704 7.015 17.23 12.622 31.46 12.461 31.621-0.1617 0.1617-50.893-83.709-112.74-186.38-61.843-102.67-112.87-187.26-113.39-187.98-0.70003-0.9663-4.9756 9.7222-16.354 40.884-8.4734 23.206-15.548 42.051-15.722 41.877-0.17353-0.1735 21.671-112.84 48.544-250.36 26.873-137.53 48.639-250.27 48.368-250.54-0.2701-0.27-21.686 10.728-47.592 24.439-25.905 13.712-47.186 24.83-47.289 24.707-0.10358-0.1225 106.95-80.379 237.89-178.35 130.95-97.969 238.45-178.57 238.91-179.11 0.5535-0.65973-19.1-6.025-60.097-16.406-33.506-8.4843-59.748-15.521-58.315-15.636 1.4324-0.11564 156.8 14.059 345.26 31.498 188.46 17.44 342.79 31.603 342.96 31.474 0.1645-0.12909-17.888-27.592-40.116-61.029-34.028-51.187-39.409-59.719-34.049-53.989 3.5015 3.7433 126.39 137.1 273.09 296.35s266.98 289.29 267.29 288.98c0.3156-0.3149 6.011-37.484 12.656-82.598l12.082-82.026 0.6642 9.3692c0.748 10.551 8.5545 891.84 8.0789 912.03l-0.3056 12.977-80.154 47.265c-44.085 25.996-80.272 46.911-80.416 46.479-0.1441-0.4324 28.245-192.86 63.086-427.62s63.223-427.21 63.07-427.66c-0.2107-0.6319-32.156 100.28-45.043 142.29l-1.7685 5.7643-207.23-310.92c-113.98-171.01-207.64-311.34-208.14-311.86-0.4996-0.51563-0.012 0.96094 1.0837 3.2812 14.916 31.59 54.933 119.59 54.468 119.78-0.3398 0.13818-140.39-35.215-311.22-78.563s-310.75-78.669-310.93-78.492c-0.177 0.17702 23.286 10.41 52.14 22.741s52.454 22.648 52.444 22.929c-0.01 0.2802-109.65 58.517-243.65 129.42-134 70.898-243.55 129-243.45 129.11 0.1 0.1125 131.15-44.5 291.23-99.14 160.08-54.639 291.39-99.46 291.82-99.602 0.4236-0.14161-19.294-12.874-43.817-28.293-24.523-15.42-44.467-28.156-44.32-28.303 0.1471-0.14713 123.01 52.182 273.04 116.29 150.02 64.105 272.84 116.51 272.93 116.45 0.087-0.058-7.1801-26.05-16.149-57.76-8.9688-31.71-16.205-57.992-16.08-58.405 0.1249-0.41278 64.097 137.96 142.16 307.5 78.064 169.54 143.04 310.49 144.4 313.22l2.4653 4.9732 32.705-66.134c17.988-36.374 32.823-66.017 32.966-65.873 0.1437 0.1437-53.946 173.37-120.2 384.96-66.253 211.58-120.34 384.8-120.19 384.93 0.2009 0.1796 88.45-34.568 154.49-60.827 2.3203-0.9227 3.7969-1.289 3.2813-0.814-0.5157 0.4749-182.26 107.74-403.87 238.37-253.58 149.47-402.48 237.76-401.71 238.19 0.6748 0.3777 42.558 16.148 93.074 35.044 50.516 18.897 92.032 34.542 92.257 34.767 0.2254 0.2253-0.188 0.3648-0.9184 0.3098-0.7305-0.055-240.49-49.206-532.81-109.23zm-226.49-285.79-408.28-231.03-0.5768-8.2545c-0.31724-4.54-0.87776-46.99-1.2456-94.332l-0.66881-86.078 13.433 10.669c149.01 118.35 667.25 529.3 668.28 529.91 0.7734 0.4675-2.6016-3.4995-7.5-8.8156s-29.197-31.661-53.997-58.545c-42.603-46.182-44.956-48.916-42.656-49.53 1.3389-0.3574 166.97-11.032 368.06-23.721 355.49-22.432 379.89-24.027 375.94-24.587-3.907-0.5532-825.85-76.199-827.96-76.199-1.9256 0 2.9524 7.7569 38.174 60.703 27.247 40.959 38.901 59.178 35.828 56.016-2.5048-2.5782-125.35-135.82-273-296.08-147.64-160.27-268.75-291.05-269.12-290.62-0.3748 0.4245-6.1135 37.554-12.753 82.51-6.6392 44.956-12.243 81.566-12.452 81.357-0.39817-0.3981-8.47-857.88-8.5296-906.1l-0.03417-27.688 80.391-47.418c44.22-26.083 80.512-46.922 80.66-46.316 0.14803 0.60587-28.24 193.19-63.085 427.96s-63.232 427.19-63.082 427.59c0.15011 0.4037 10.564-32.24 23.143-72.54s23.151-73.817 23.494-74.48c0.37738-0.7293 82.653 121.84 208.14 310.08 114.14 171.21 207.66 311.28 207.82 311.28 0.1658 0-0.5519-1.793-1.5948-3.9844-7.1035-14.927-54.975-119.35-54.809-119.55 0.1139-0.1399 140.64 35.38 312.27 78.932 171.64 43.552 312.16 79.086 312.29 78.963 0.1225-0.1226-23.87-10.5-53.316-23.062-44.054-18.793-53.273-23.033-52.038-23.936 0.8253-0.6034 110.16-58.607 242.97-128.9 132.81-70.29 241.33-127.94 241.15-128.12s-20.706 6.6458-45.621 15.16c-24.916 8.5141-45.496 15.286-45.734 15.047-0.2381-0.2381 36.168-100.55 80.902-222.91s81.522-223.11 81.752-223.89-8.7291 15.047-19.908 35.156c-11.179 20.109-20.637 36.888-21.02 37.286-0.3822 0.3981-35.465-84.895-77.961-189.54-42.497-104.65-77.377-190.15-77.513-190.02-0.1355 0.1356 3.5217 16.447 8.1272 36.248 4.6056 19.801 8.2981 36.042 8.2058 36.092-0.093 0.05-63.238-30.396-140.32-67.659-168.75-81.571-175.31-84.728-175.31-84.312 0 0.1799 11.155 8.0597 24.789 17.511l24.789 17.184-11.823 3.4731c-6.5025 1.9102-72.134 21.11-145.85 42.667-73.714 21.557-133.39 39.32-132.62 39.473 0.7727 0.1537 12.715-1.2128 26.538-3.0366 13.823-1.8239 25.254-3.1958 25.401-3.0486 0.1934 0.1935-97.585 159.79-132.64 216.51-1.1952 1.9336-2.0039 3.5156-1.797 3.5156s6.6749-7.388 14.373-16.418c9.8465-11.549 14.101-15.928 14.348-14.766 0.1931 0.9086 9.3435 49.957 20.334 109l19.983 107.34-0.178-18.048c-0.098-9.9263-0.067-18.047 0.066-18.047 0.1346 5e-4 34.096 25.859 75.469 57.464s75.857 57.845 76.63 58.312-3.5393-4.3934-9.5838-10.801c-6.0446-6.4074-10.685-11.907-10.312-12.22 0.3727-0.3136 35.271-3.4197 77.552-6.9022 76.676-6.3154 86.056-7.1499 85.57-7.6124-0.1416-0.1346-41.541-3.334-91.998-7.1099l-91.741-6.8651-6.9369-13.851c-3.8152-7.6178-6.725-13.851-6.4662-13.851s31.343 7.1685 69.076 15.93 68.719 15.816 68.858 15.677c0.1392-0.1391-4.8029-2.3028-10.982-4.8081l-11.235-4.555 2.6155-1.5699c1.4385-0.8633 25.299-13.946 53.023-29.074 27.724-15.127 50.273-27.638 50.109-27.802-0.1641-0.1642-4.0741 1.1066-8.6889 2.8239s-8.4969 2.8609-8.6268 2.5412c-0.13-0.3196 7.3566-22.483 16.637-49.251s16.69-48.852 16.467-49.076c-0.2232-0.2231-2.1465 3.0566-4.2742 7.2883s-4.0306 7.532-4.2287 7.3339c-0.1981-0.1982-9.4171-21.806-20.487-48.018-11.07-26.212-19.776-47.293-19.347-46.846 1.6862 1.7564 48.1 75.922 48.554 77.586 0.3246 1.1894 1.5181-0.9727 3.6225-6.5625 1.726-4.585 2.9373-7.0708 2.6919-5.5239-0.2455 1.5468-4.5091 25.725-9.4747 53.73-4.9655 28.004-8.8114 51.134-8.5463 51.399 0.265 0.2651 3.7898-1.3017 7.8328-3.4815 4.043-2.18 6.718-3.3256 5.9446-2.5461-0.7734 0.7796-22.711 17.975-48.75 38.212s-47.906 37.326-48.593 37.977c-1.0154 0.9611 1.1327 1.7452 11.469 4.1858 6.9949 1.6517 13.496 2.8674 14.447 2.7015s26.111-26.247 55.911-57.958 56.088-59.555 58.418-61.875c3.3231-3.3099 1.5139-0.1796-8.3985 14.531-6.9487 10.312-26.203 38.865-42.787 63.451s-30.153 44.852-30.153 45.037 6.4315-0.2088 14.292-0.8746c7.8607-0.6657 14.597-1.1043 14.97-0.9745 0.3728 0.1298-36.539 9.2775-82.027 20.328-45.488 11.051-84.562 20.56-86.832 21.132l-4.1272 1.0394 11.586 8.8684c6.3726 4.8775 12.238 9.4266 13.034 10.109 1.9356 1.6598-3.5054-1.2301-97.466-51.766-44.571-23.972-81.156-43.468-81.3-43.324-0.1444 0.1443 1.2447 8.388 3.0868 18.319 1.8421 9.9313 3.2091 18.197 3.0379 18.368-0.1712 0.1712-17.976-49.546-39.565-110.48-21.59-60.937-39.568-111.14-39.951-111.57-0.3834-0.4267-6.5281 8.7355-13.655 20.36s-13.076 21.018-13.221 20.872c-0.5307-0.5306 108.69-259.85 109.72-260.52 2.1006-1.3545-0.707-0.613-27.639 7.3006-15.008 4.4099-27.428 7.8782-27.599 7.7072-0.171-0.1709 65.584-31.256 146.12-69.079 80.538-37.823 146.72-69.029 147.06-69.348 0.3443-0.3188-12.841-7.0814-29.302-15.028-16.46-7.9466-29.771-14.605-29.58-14.796 0.2673-0.2673 349.4 105.56 360.78 109.36 2.1528 0.7185 2.4366 0.6115 1.9363-0.7306-0.3224-0.8648-6.8335-16.939-14.469-35.72s-13.758-34.272-13.606-34.424c0.152-0.1519 50.879 83.724 112.73 186.39 61.848 102.67 112.9 187.29 113.46 188.05 0.7807 1.0731 2.7622-3.4198 8.8454-20.056 18.252-49.917 23.36-63.564 23.394-62.498 0.02 0.6209-21.91 113.45-48.732 250.73s-48.654 249.9-48.516 250.26c0.1387 0.3666 16.706-8.0558 36.815-18.716 49.404-26.19 59.319-31.342 57.596-29.924-0.8068 0.6639-108.5 81.317-239.32 179.23-130.82 97.912-237.73 178.15-237.57 178.31 0.8001 0.8001 123.02 31.388 124.43 31.143 1.4284-0.2472 449.85-460.13 448.67-460.13-0.2422 0-21.026 15.387-46.185 34.193l-45.745 34.193-0.2676-3.9584c-0.1472-2.1772 4.1841-125.86 9.6249-274.85 5.441-148.99 9.7711-271.26 9.6227-271.7s-4.431 20.627-9.5168 46.828c-5.0859 26.201-9.3579 47.77-9.4934 47.932s-68.26-80.838-151.39-180c-83.128-99.162-152.22-181.35-153.54-182.64l-2.3961-2.3437 1.4187 2.3437c34.245 56.576 42.768 71.25 41.387 71.25-1.8424 0-397.93-55.077-402.01-55.902-7.3708-1.4871 0.8059 1.2634 30.95 10.411 18.04 5.4745 33.586 10.188 34.546 10.475 1.4602 0.4361 1.5367 0.716 0.4688 1.7137-0.702 0.6558-65.823 44.969-144.71 98.474-78.891 53.505-143.86 97.666-144.38 98.136-1.2447 1.1349 4.8984-1.6403 32.344-14.612 12.633-5.9706 23.084-10.517 23.224-10.103s-15.594 65.849-34.965 145.41c-19.371 79.562-35.096 144.78-34.943 144.93 0.1528 0.1513 4.6581-10.218 10.012-23.042l9.7341-23.318 62.358 115.76c34.297 63.668 62.476 115.64 62.621 115.5 0.145-0.1449-3.2503-10.172-7.5451-22.283s-7.7164-22.119-7.6035-22.24c0.1128-0.1214 56.918 20.038 126.23 44.798 69.316 24.76 124.76 44.796 123.22 44.523-17.169-3.0287-231.87-42.836-232.75-43.154-1.391-0.5032-1.4564-0.6366 11.02 22.49 11.665 21.622 11.391 21.094 10.932 21.094-0.2148 0-38.485-50.001-85.046-111.11-46.56-61.112-84.944-110.79-85.298-110.39-0.3537 0.3969-3.5473 12.871-7.0968 27.719-3.5496 14.849-6.5502 25.818-6.6681 24.375-0.118-1.4424 5.8161-74.763 13.187-162.94 7.3707-88.172 13.331-160.43 13.245-160.56-0.086-0.138-12.348 8.0079-27.249 18.102-23.99 16.251-26.449 17.715-21.468 12.779 3.0937-3.066 64.806-61.084 137.14-128.93 72.333-67.845 131.52-123.69 131.52-124.09 0-0.4042-16.78-3.095-37.296-5.9794l-37.301-5.2444 24.844-0.6532c43.854-1.1529 403.37-7.2579 409.8-6.9589l6.2051 0.2883-9.5303-11.25c-11.606-13.7-47.347-56.485-49.291-59.004-1.4277-1.8507 22.107 18.607 253.52 220.38 131.03 114.24 131.33 114.5 131.91 111.56 0.3235-1.6171 1.3512-25.833 2.2836-53.813 0.9325-27.98 1.964-50.55 2.2922-50.156 0.3281 0.394 16.586 133.73 36.129 296.31l35.532 295.59 15.54-15.749c8.5467-8.6622 28.724-29.25 44.839-45.75l29.299-30-6.9042 9.8438c-3.7974 5.4141-94.345 133.38-201.22 284.38-106.87 150.99-194.17 274.68-193.99 274.86 0.1789 0.179 32.575-1.7375 71.991-4.2587 39.416-2.5213 71.77-4.4803 71.897-4.3533 0.1911 0.191-317.59 71.281-702.45 157.14l-82.609 18.43 67.843 53.801c60.783 48.203 68.498 54.406 67.609 54.369-0.1289-0.01-183.96-103.97-408.52-231.04zm-549.72-552.62c-94.265-283.12-171.47-514.77-171.56-514.77-0.0944 0-27.582 42.785-61.084 95.078s-61.023 94.966-61.16 94.83c-0.24888-0.2486 504.96-1152.9 505.62-1153.5 0.43008-0.4432 249.99-28.264 250.94-27.974 0.46697 0.14291-605.76 947.57-630.83 985.87-0.80081 1.2237-1.0716 1.9873-0.60171 1.6969s32.682-36.41 71.582-80.266 70.835-79.213 70.967-78.572c1.5422 7.5182 197.99 1191 197.79 1191.6-0.14831 0.445-77.395-230.84-171.66-513.96zm874.57 325.12c-114.47-48.949-237.5-101.56-273.4-116.9l-65.271-27.903 2.2119 8.0061c1.2165 4.4034 8.7173 30.998 16.669 59.1 7.9511 28.102 14.357 51.197 14.236 51.324-0.1216 0.1264-64.275-138.88-142.56-308.91-78.288-170.02-143.44-311.33-144.77-314.01l-2.4275-4.8696-32.812 66.428c-18.047 36.536-32.918 66.325-33.046 66.198-0.12854-0.1264 53.974-173.34 120.23-384.93 66.253-211.58 120.27-384.89 120.03-385.13-0.23673-0.23672-35.748 13.541-78.913 30.618-43.166 17.077-78.575 30.949-78.687 30.829s181.2-107.16 402.92-237.88c221.72-130.71 403.28-237.91 403.47-238.22 0.1921-0.30986-41.801-16.329-93.319-35.598-51.517-19.269-93.567-35.136-93.442-35.26 0.1239-0.124 239.97 48.946 532.99 109.05 293.02 60.099 532.98 109.05 533.26 108.77 0.2734-0.27333-22.488-44.926-50.58-99.228-56.011-108.27-55.657-107.58-54.351-106.23 0.5003 0.51562 166.34 226.08 368.54 501.26l367.63 500.32v49.582l-43.739 99.73c-24.057 54.851-44.033 100.07-44.392 100.48-0.3592 0.4136-121.65-233.09-269.54-518.91-147.89-285.81-269.23-520.05-269.65-520.53-0.4218-0.4783 14.383 44.576 32.9 100.12 28.746 86.231 33.388 100.9 31.76 100.39-1.049-0.33296-213.73-79.864-472.62-176.73s-470.84-176.01-470.98-175.86c-0.1482 0.1482 35.796 20.68 79.876 45.625l80.146 45.356-32.115 12.718c-17.663 6.995-199.04 78.737-403.07 159.43-204.02 80.689-370.66 146.8-370.31 146.92s34.39-7.3346 75.64-16.558c41.25-9.2232 75.111-16.661 75.246-16.528 0.17868 0.17536-310.56 628.85-329.27 666.16-1.4219 2.8359-2.1842 4.7344-1.694 4.2188 0.49019-0.5157 17.619-24.618 38.064-53.562 20.445-28.943 37.929-53.558 38.854-54.7 1.6474-2.0345 3.4223 4.0944 89.302 308.37 48.192 170.75 87.732 309.9 87.867 309.23 0.19779-0.9768-84.497-706.91-85.324-711.18-0.12926-0.6671-12.233 11.145-26.897 26.25-36.584 37.683-63.098 64.686-62.388 63.536 0.32595-0.5274 90.679-128.23 200.78-283.79 110.1-155.55 200.38-283.32 200.62-283.93 0.2991-0.7795-0.7705-0.99168-3.6184-0.71776-8.4741 0.81505-138.82 8.8346-139.1 8.558-0.2327-0.23271 772.81-173.13 781.55-174.8 2.2024-0.42078 7.5761 5.1177 57.162 58.914l54.731 59.378-3.7241 0.27536c-4.2814 0.31657-739.75 47.012-743.08 47.179-5.1131 0.25607 9.8022 1.813 71.646 7.4784 35.975 3.2957 64.977 6.1364 64.448 6.3127-0.8035 0.26786-417.31 427.86-441.59 453.35l-7.952 8.3461 11.25-8.2888c6.1875-4.5589 27.176-20.237 46.641-34.84l35.391-26.551v6.4516c0 3.5483-4.4239 127.66-9.8308 275.8-5.407 148.14-9.7168 269.47-9.5775 269.61 0.13934 0.1393 4.4351-21.242 9.5461-47.513 5.111-26.272 9.5647-47.766 9.8971-47.766 0.54743 0 362.32 430.88 365.56 435.39 1.6447 2.2902 17.721 16.245-204.34-177.37l-180.47-157.35-0.58763 5.2089c-0.3232 2.865-1.3517 27.685-2.2855 55.156-1.4763 43.426-1.5219 50.108-0.34987 51.187 0.74142 0.6823 105.55 66.76 232.91 146.84s232.51 146.21 233.67 146.97c1.1602 0.7527 2.1094 1.1509 2.1094 0.885 0-0.2658-16.875-15.18-37.5-33.142s-37.5-32.888-37.5-33.168 103.46-18.79 229.92-41.133 231.4-40.988 233.2-41.434c1.8985-0.4687-14.442-0.588-38.776-0.2828l-42.058 0.5274 5.097-6.4091c2.8034-3.525 56.085-71.8 118.4-151.72 62.319-79.922 117.03-150.06 121.58-155.86 4.5528-5.8008 8.0661-10.547 7.8073-10.547s-12.39 11.18-26.957 24.844c-14.568 13.664-26.706 24.844-26.974 24.844-0.4135 0-26.422-344.87-26.296-348.67 0.024-0.7304-0.1345-1.1494-0.3529-0.9309-0.2186 0.2184-1.5285 13.894-2.9112 30.391s-2.6524 30.141-2.8216 30.322c-0.1692 0.1804-46.215-43.465-102.32-96.99-56.109-53.525-105.15-100.29-108.97-103.92-6.8347-6.4891-6.685-6.2464 8.6492 14.022l15.604 20.625-6.9322 0.2725c-5.4088 0.2125-279.28-7.4916-301.46-8.4801-2.9677-0.1323 49.558-7.3466 123.75-16.997 70.898-9.2219 133.62-17.396 139.38-18.166l10.47-1.3984-11.407-10.874c-22.54-21.487-31.381-30.538-26.876-27.516 2.3203 1.5568 62.859 43.573 134.53 93.37 71.672 49.797 130.44 90.153 130.6 89.68s-0.8212-15.692-2.1813-33.82-2.335-33.095-2.1665-33.26 19.74 83.423 43.492 185.75l43.186 186.05 24.164-30.98c13.29-17.039 24.371-30.98 24.625-30.98 0.5881 0 8.5308-14.428-110.19 200.16-56.199 101.58-101.86 184.8-101.48 184.94 0.3864 0.1412 21.076-3.3618 45.976-7.7845 24.901-4.4227 45.432-7.8826 45.626-7.6887 0.1938 0.1939-102.69 35.511-228.62 78.483-125.94 42.972-236.04 80.557-244.68 83.522l-15.704 5.3909 45.001 28.289c37.402 23.512 47.366 29.961 44.766 28.974-0.1289-0.049-93.891-40.139-208.36-89.088zm15.469-313.95c-73.992-51.467-134.67-93.446-134.83-93.287s0.8152 14.903 2.1751 32.764c1.36 17.861 2.3263 32.913 2.1472 33.45-0.2796 0.8388-84.773-361.1-85.828-367.66-0.3362-2.0892 2.9712-5.5379 26.522-27.656 14.799-13.898 27.279-25.41 27.734-25.582 0.4554-0.172 0.8075 0.2499 0.7823 0.9375-0.089 2.4396 25.796 348.47 26.049 348.22 0.1414-0.1414 1.3098-12.876 2.5965-28.299 1.2866-15.423 2.4444-29.082 2.5729-30.354 0.2001-1.98 15.238 11.999 104.76 97.388 57.492 54.835 106.6 101.65 109.12 104.03 3.5138 3.3135 1.7599 0.5867-7.4653-11.606-6.6318-8.7657-13.67-17.997-15.64-20.515-1.9702-2.5176-3.3839-4.776-3.1414-5.0184 0.6002-0.6002 308.06 8.4867 308.06 9.1046-8e-4 0.2703-61.278 8.4534-136.17 18.185-74.894 9.7313-136.33 17.836-136.52 18.01-0.1943 0.1738 5.2901 5.701 12.188 12.283 17.934 17.113 30.428 29.346 29.884 29.259-0.2578-0.041-61.008-42.184-135-93.652zm296.08 9.0533c-11.182-2.1428-20.56-4.1335-20.84-4.4237-0.28-0.29 42.394-37.204 94.83-82.031 114.14-97.578 109.12-93.326 106.08-89.89-1.3449 1.5189-36.68 42.734-78.523 91.59-67.574 78.898-76.366 88.818-78.649 88.74-1.4137-0.049-11.719-1.8415-22.901-3.9844zm-84.512-29.774c-9.7106-5.2237-17.304-9.8032-16.875-10.176 0.4295-0.3734 39.966-16.864 87.858-36.646s86.705-36.085 86.25-36.229c-0.4548-0.1444-7.4944 1.3613-15.644 3.346-12.323 3.0013-14.722 3.3541-14.252 2.0962 1.307-3.5012 82.524-173.37 82.773-173.12 0.1497 0.1498-10.52 37.293-23.71 82.54s-23.761 82.489-23.49 82.76c0.2711 0.2709 6.6857-2.1035 14.255-5.2764 7.5691-3.1731 13.882-5.6488 14.03-5.5017 0.3976 0.3975-170.36 104.95-172.07 105.36-0.8062 0.1914-9.411-3.9258-19.122-9.1495zm-138.83-127.1-60.86-64.328 4.4733-15.566c2.4603-8.5613 4.7519-16.074 5.0922-16.696 0.3598-0.6569 21.285 28.776 49.99 70.312 27.154 39.293 52.368 75.767 56.032 81.052 3.6637 5.2852 6.5422 9.5967 6.3966 9.5813-0.1455-0.015-27.652-28.976-61.124-64.356zm82.966 8.0406c-32.701-13.352-59.614-24.118-59.808-23.924-0.1938 0.1938 0.936 4.689 2.5106 9.9894s2.7267 9.7732 2.5602 9.9397c-0.3705 0.3705-64.418-132-64.408-133.11 0.01-0.6702 14.968-23.08 16.848-25.236 0.3444-0.3949 9.6581 29.639 20.697 66.742 11.039 37.103 20.218 67.313 20.398 67.134 0.1797-0.1796-0.3678-5.0461-1.2169-10.814-0.849-5.7683-1.4071-10.621-1.2405-10.785 0.1666-0.1635 18.233 10.47 40.147 23.629 48.871 29.348 64.688 38.727 64.688 38.361 0-0.1548-3.4632-3.1804-7.696-6.7236l-7.6962-6.4421 49.649-10.02c43.593-8.7978 48.821-10.031 42.857-10.114l-6.7924-0.094 26.167-34.922c14.392-19.207 25.982-35.106 25.757-35.332s-2.2843 1.4296-4.5756 3.6784c-2.9391 2.8844-4.2926 3.6955-4.5956 2.754-0.2361-0.7341-1.8002-17.258-3.4755-36.72-1.6754-19.462-3.1621-35.27-3.3037-35.128-0.4961 0.4961-6.0981 77.63-5.8074 79.963 0.2937 2.356 0.2956 2.3555 6.3875-1.9554 6.913-4.8919 8.8072-6.813-34.528 35.019l-20.934 20.208-6.7223-1.7082c-3.6973-0.9395-7.2619-1.9971-7.9211-2.3501-0.749-0.401 10.155-8.6773 29.062-22.059 16.644-11.78 30.683-21.821 31.199-22.314 0.5157-0.4932-1.3192 0.2317-4.0775 1.6109-2.7583 1.3791-5.2077 2.3149-5.443 2.0795-0.2354-0.2353 2.3565-13.025 5.7597-28.422 7.6367-34.551 7.4434-33.53 5.5846-29.504-0.8071 1.7479-1.8057 2.8026-2.2191 2.3437-0.4133-0.4589-6.9804-12.014-14.594-25.678s-14.667-26.215-15.675-27.891-1.641-3.0469-1.4064-3.0469c0.2345 0 8.3503 10.141 18.035 22.535s17.9 22.715 18.256 22.935c0.3561 0.2201 1.2138-2.6014 1.906-6.27l1.2586-6.6702-6.5394-6.1868c-20.539-19.431-40.829-37.73-39.889-35.974 0.5966 1.1148 1.5043 2.2861 2.0172 2.603 3.2128 1.9858-1.4702 2.3333-30.24 2.2443l-31.172-0.096 17.344-2.6606c9.5391-1.4633 22.12-3.3776 27.956-4.2541l10.613-1.5934-4.0504-4.2075c-3.0513-3.1699 3.0018 0.5247 24.544 14.98 15.727 10.553 29.184 19.53 29.905 19.95 1.0841 0.6298 1.2004-0.075 0.6708-4.0672-0.3523-2.656-0.4667-4.8291-0.2543-4.8291 0.2126 0 4.7254 17.365 10.029 38.589l9.6422 38.589 1.9568-2.3086c1.0763-1.2697 3.1406-3.7637 4.5874-5.542 2.9232-3.5932-1.6458 5.4096-25.951 51.134-8.4944 15.98-15.332 29.168-15.194 29.306 0.1379 0.1379 4.3911-0.6012 9.4514-1.6424 5.0604-1.0412 9.3373-1.7566 9.5041-1.5897 0.1669 0.1669-22.575 8.6836-50.538 18.926-27.963 10.242-52.033 19.113-53.49 19.713l-2.6486 1.0906 6.8674 4.0466c8.3725 4.9334 10.851 6.5935 9.6542 6.4675-0.5015-0.053-27.667-11.02-60.368-24.372zm254.92 17.239c0-1.677 29.163-227.72 29.486-228.55 0.2011-0.5157 0.399 1.7798 0.4397 5.101 0.04 3.3212 1.144 46.458 2.4517 95.861 1.3077 49.402 2.2569 93.875 2.1094 98.828l-0.2683 9.0064-16.653 10.211c-9.1593 5.6161-16.858 10.211-17.109 10.211s-0.4561-0.2999-0.4561-0.6665zm-272.81-55.181c-22.945-19.34-42.503-35.943-43.461-36.896-1.6832-1.6724-1.6879-2.0617-0.1369-11.447 0.883-5.3436 1.9166-10.05 2.2968-10.458s16.473 17.303 35.762 39.357 37.957 43.376 41.484 47.382c3.5275 4.0059 6.2697 7.2703 6.0937 7.2542-0.1758-0.016-19.093-15.853-42.039-35.194zm-1414.6-220.06-0.074013-252 32.367-321.28c17.802-176.7 32.251-322.01 32.109-322.9-0.19927-1.2546-7.306 2.9882-31.196 18.624-17.016 11.137-31.472 20.459-32.125 20.715-0.944 0.371-1.1362-4.6935-0.9375-24.708l0.24989-25.174 254.02-229.46 254.02-229.46h135.9c74.747 0 135.73 0.16035 135.51 0.35634-0.21485 0.19599-158.17 103.38-351.02 229.31s-351.05 229.36-351.56 229.86c-1.3738 1.3256-8.2131 4.3592 128.91-57.177 69.867-31.355 127.14-56.755 127.27-56.444 0.21406 0.49584-332.02 1268.4-333 1270.8-0.20903 0.5156-0.41336-112.46-0.45406-251.07zm1439 231.74c-2.6565-4.1842-4.659-7.7786-4.45-7.9876 0.2089-0.209 22.784 2.4722 50.167 5.9581s49.488 6.595 49.122 6.9091c-0.626 0.5374-68.798 2.7844-83.306 2.7458l-6.703-0.018-4.83-7.6076zm26.723-14.283-39.326-11.391-2.043-8.1675-2.043-8.1674 2.9313 1.2649c1.6122 0.6957 15.377 7.0588 30.588 14.14 15.211 7.0814 29.133 13.46 30.938 14.175 3.2454 1.2856 3.2562 1.2818 0.9884-0.3479-6.5401-4.6996-7.9159-3.7981 17.951-11.762 13.044-4.0159 27.514-8.5429 32.154-10.06l8.4375-2.758-5.5852 0.5829-5.5852 0.5829 1.4453-2.2418c0.7948-1.2329 8.5129-14.371 17.151-29.195 8.6383-14.824 15.847-26.953 16.019-26.953s-4.8565 12.867-11.175 28.594c-6.3183 15.727-11.375 28.594-11.237 28.594 0.1379 0 1.2273-0.3601 2.421-0.8003 9.771-3.6025 3.2972 0.086-23.891 13.612l-31.687 15.764 6.3744 2.9775c3.5059 1.6376 5.9525 2.9706 5.4368 2.9623-0.5156-0.01-18.634-5.1411-40.263-11.406zm-183.34-3.5002c-0.01-4.8555-1.0546-47.852-2.3306-95.547s-2.326-90.736-2.3332-95.645l-0.013-8.9266 17.109-10.526c9.4101-5.7891 17.239-10.138 17.397-9.6643 0.3635 1.0892-28.814 228.13-29.392 228.71-0.2348 0.2349-0.4317-3.5457-0.4375-8.4011zm122.66-36.168-25.005-39.784-2.6012 7.9873c-1.4306 4.3929-2.7285 7.8597-2.8844 7.7039-0.1558-0.1558 3.9349-23.969 9.0904-52.919s9.3737-53.313 9.3737-54.14c0-1.1577-1.8874-0.4867-8.2031 2.9166-4.5117 2.4313-7.7813 3.9925-7.2656 3.4694 0.5156-0.523 22.242-17.511 48.281-37.751s48.328-37.693 49.53-38.784l2.186-1.9843-12.03-2.9413c-6.6163-1.6176-10.975-2.9965-9.686-3.0641 2.7168-0.1424 142.5 10.079 146.73 10.73 2.5941 0.3987 3.3892 1.5599 9.6052 14.027 3.8541 7.7298 6.2734 13.579 5.6093 13.562-0.6423-0.016-31.754-7.1485-69.136-15.849s-68.079-15.714-68.214-15.585c-0.1347 0.1291 4.8246 2.2808 11.021 4.7817 6.196 2.5009 10.947 4.8415 10.557 5.2014-0.3895 0.3599-24.122 13.406-52.739 28.99s-52.664 28.74-53.438 29.234c-1.7179 1.0971-0.8727 0.8285 10.971-3.4868l8.6271-3.1434-0.9735 2.5215c-2.6983 6.9883-33.627 97.05-33.405 97.273 0.1421 0.1421 2.1363-3.2778 4.4315-7.5997 2.2953-4.3219 4.2785-7.7528 4.4071-7.6242 0.465 0.465 40.56 95.697 40.363 95.868-0.1114 0.096-11.455-17.728-25.208-39.609zm44.36 15.487-29.395-19.7 0.6727 4.9948c0.3701 2.7471 0.4403 4.7748 0.1561 4.5059-0.2842-0.2688-4.7877-17.557-10.008-38.417s-9.6267-38.064-9.7926-38.23c-0.1657-0.1658-2.3303 2.4618-4.8102 5.8393-2.4799 3.3774-4.6406 6.1407-4.8016 6.1407s1.5748-3.4805 3.8575-7.7344c16.715-31.151 40.84-76.973 40.633-77.179-0.1379-0.1378-4.2182 0.5631-9.0673 1.5578-4.8493 0.9946-8.9637 1.6613-9.1434 1.4816-0.1796-0.1796 22.985-8.8725 51.477-19.318 28.492-10.445 52.363-19.301 53.046-19.68 0.8217-0.4553-1.6401-2.3526-7.2656-5.5992-4.6796-2.7008-8.5084-5.0815-8.5084-5.2905 0-0.4828-5.1926-2.5573 62.209 24.853 31.895 12.971 58.187 23.387 58.427 23.147 0.2402-0.2403-0.8586-4.7665-2.4417-10.058-1.5832-5.2918-2.7466-9.7533-2.5855-9.9145 0.7228-0.7228 64.561 132.88 64.085 134.12-0.293 0.7634-4.2142 6.7466-8.7138 13.296-6.5111 9.4772-8.3094 11.545-8.8093 10.13-0.3456-0.9777-9.4297-31.397-20.187-67.599-10.757-36.202-19.68-65.7-19.829-65.552s0.3909 5.0232 1.1985 10.833c0.8077 5.8095 1.3111 10.72 1.1187 10.913-0.1925 0.1924-21.844-12.548-48.114-28.311s-49.663-29.711-51.983-30.996l-4.2187-2.3348 4.6592 4.0722c2.5627 2.2397 5.8929 5.1578 7.4006 6.4845l2.741 2.4123-48.182 9.5896c-26.5 5.2742-49.236 9.9226-50.525 10.33-1.3345 0.4214 1.0837 0.5448 5.6162 0.2864 6.7181-0.3829 7.7964-0.2501 6.9115 0.8517-1.2379 1.5412-50.775 68.157-52.211 70.212-0.5407 0.7734 2.7881-2.2236 7.3972-6.6599 62.47-60.13 64.378-61.879 66.88-61.328 1.3406 0.2953 4.9644 1.288 8.0531 2.2059l5.6157 1.669-30.694 21.822c-16.882 12.002-30.694 22.005-30.694 22.228 0 0.2232 2.1094-0.663 4.6875-1.9695 2.5781-1.3064 4.6875-1.9719 4.6875-1.479 0 0.4931-2.9531 14.297-6.5625 30.675s-6.5514 30.009-6.5379 30.291c0.013 0.2821 0.7707-1.148 1.6825-3.1782l1.658-3.6912 14.878 26.66c8.183 14.663 15.49 27.609 16.238 28.769 0.7476 1.1602 1.1289 2.1094 0.8472 2.1094s-8.4098-10.125-18.062-22.5-17.84-22.5-18.195-22.5-1.1863 2.8685-1.8478 6.3742l-1.2027 6.3744 5.9742 5.6681c3.2859 3.1174 14.201 13.217 24.256 22.444 16.445 15.091 19.45 17.488 13.709 10.937l-1.8485-2.1094 32.742 0.097 32.742 0.097-28.827 4.3222-28.826 4.3222 3.9436 4.0182c2.169 2.2099 3.7503 3.9908 3.514 3.9574-0.2362-0.034-13.657-8.9256-29.824-19.76zm-26.007-67.154c1.6616-22.031 2.9175-40.204 2.7908-40.384-0.1268-0.1799-3.0013 1.6501-6.3878 4.0666-4.2815 3.0553-6.1663 5.0114-6.1869 6.4209-0.059 4.0431 6.0854 71.985 6.4194 70.982 0.1889-0.5665 1.7029-19.055 3.3645-41.086zm205.96 67.633c0.1954-35.309 2.3693-126.33 2.9639-124.1 0.7531 2.8288 16.631 120.83 16.631 123.6 0 1.8128-4.2056 5.6109-16.172 14.605l-3.5156 2.6426 0.093-16.752zm-261.83 5.7481c-0.3553-2.0625-4.3381-31.126-8.8505-64.586l-8.2047-60.836 2.7569-2.2197c1.5164-1.2208 6.0871-4.8104 10.157-7.9769l7.4003-5.7572-0.7319 44.438c-1.3013 79.004-1.8686 100.76-2.5274 96.938zm-66.116-57.656c0.2136-0.7734 11.044-38.028 24.068-82.789 13.023-44.76 23.488-81.574 23.255-81.807-0.2332-0.2331-5.6578 1.734-12.055 4.3715-15.58 6.4235-16.498 6.7634-15.381 5.6956 1.238-1.1839 171-105.16 171.7-105.16 1.2999 0 35.864 19.084 35.534 19.619-0.2028 0.3283-40.046 17.012-88.541 37.075s-88.06 36.591-87.922 36.729c0.1377 0.1378 7.3261-1.4629 15.974-3.5572 8.648-2.0942 15.916-3.6156 16.15-3.3812 0.3982 0.3983-78.508 166.6-81.704 172.09-0.8044 1.383-1.2877 1.8817-1.074 1.1083zm129.33-12.188c3.6907-10.348 21.794-54.082 22.599-54.595 1.5744-1.0028 0.6975-0.8651-4.4638 0.7006-2.5342 0.7687-4.7473 1.2581-4.918 1.0875-0.1706-0.1708 13.688-7.1483 30.797-15.506l31.107-15.195-5.5639-2.7441c-7.2732-3.5868-7.0442-3.531 36.155 8.8204l37.031 10.588 2.0769 7.8293c1.1423 4.3061 1.9496 7.9566 1.794 8.1123-0.1556 0.1556-12.692-5.4518-27.858-12.461-44.088-20.375-42.813-19.845-34.465-14.323l3.4231 2.2643-30.142 9.2662c-34.433 10.585-35.844 11.091-28.888 10.351 2.7521-0.2927 4.823-0.1963 4.602 0.2142-0.2211 0.4104-7.5005 12.981-16.177 27.934-14.609 25.178-18.428 31.351-17.11 27.656zm216.31-91.102c-52.635-76.135-58.499-84.726-56.516-82.804 8.1418 7.8938 120.29 127.39 120.29 128.17 0 1.6482-8.5717 31.103-9.2792 31.886-0.3392 0.3753-24.863-34.389-54.497-77.254zm-60.513 24.774c-21.511-24.621-40.209-46.003-41.552-47.516s2.8327 1.6618 9.278 7.0549c51.857 43.39 75.938 64.072 75.938 65.217 0 3.3848-3.179 20.01-3.8262 20.01-0.3995 0-18.326-20.144-39.838-44.766zm-75.106-24.479c-26.394-3.402-47.853-6.3205-47.688-6.4858 0.3376-0.3377 75.109-2.9584 85.47-2.9957l6.6685-0.024 4.8159 7.5662c2.6487 4.1614 4.8158 7.7473 4.8158 7.9688 0 0.8173-7.1234 0.023-54.082-6.0295zm-189.64-87.923c41.883-48.909 77.108-89.928 78.278-91.154l2.1272-2.2277 21.892 3.9974c12.04 2.1986 22.467 4.2995 23.171 4.6688 0.8684 0.4557-30.88 28.196-98.834 86.355-55.062 47.126-100.71 86.044-101.45 86.485-0.7346 0.4406 32.932-39.216 74.815-88.125zm-957.22-247.19c0-0.3573 162.18-183.42 360.39-406.81 198.22-223.39 360.28-406.27 360.15-406.41-0.191-0.19106-214.58-10.235-227.36-10.652-1.8346-0.0598-2.7028-0.26389-1.9293-0.4535s283.2-31.582 627.6-69.761c344.41-38.179 626.33-69.546 626.49-69.704 0.1579-0.15795-23.539-24-52.66-52.983l-52.947-52.696 16.62 0.2751 16.62 0.2751 481.11 346.41 481.11 346.41 0.057 146.23 0.057 146.23-6.7969-6.6313c-19.053-18.588-790.66-782.59-830.62-822.44-25.652-25.577-46.641-46.251-46.641-45.942 0 0.30874 32.68 45.026 72.622 99.371l72.622 98.81-4.8873 0.25673c-3.9337 0.20665-1132.8-51.099-1157.5-52.61-4.2822-0.26124-6.2982-0.11943-5.1563 0.36272 1.0313 0.43542 47.648 10.141 103.59 21.568 55.945 11.427 101.82 20.868 101.94 20.98 0.1235 0.11197-0.9312 1.2767-2.3437 2.5883-1.4126 1.3116-210.55 173.57-464.76 382.79-254.2 209.22-463.35 381.48-464.77 382.8-1.418 1.3163-2.5781 2.101-2.5781 1.7436zm2230.3-864.32-404.52-204.6 224.99-0.27739 224.99-0.27739 179.77 57.888 179.77 57.888v147c0 80.85-0.1055 146.99-0.2344 146.99-0.1289-6e-3 -182.27-92.08-404.76-204.61zm-2255.6 137.84c0.25781-0.2827 172.23-77.554 382.17-171.71l381.7-171.2 248.7 0.23612 248.7 0.23612-629.46 171.02c-346.2 94.061-630.1 171.23-630.87 171.48-0.77344 0.25144-1.1953 0.22584-0.9375-0.0569zm-339.38-189.44v-153.47h123.75c68.062 0 123.75 0.18303 123.75 0.40674 0 0.35021-244.44 303.22-246.68 305.64-0.47212 0.51115-0.82263-64.5-0.82263-152.58zm2988.3-122.66c-6.1822-16.053-11.381-29.553-11.553-30-0.172-0.44698 4.996-0.81269 11.484-0.81269h11.797v30c0 16.5-0.1099 30-0.2441 30-0.1344 0-5.3023-13.134-11.484-29.187z"/>
</svg>
